<?xml version="1.0" standalone="no"?>
<!DOCTYPE svg PUBLIC "-//W3C//DTD SVG 1.1//EN" "http://www.w3.org/Graphics/SVG/1.1/DTD/svg11.dtd" >
<!--
2013-9-30: Created.
-->
<svg>
<metadata>
Created by iconfont
</metadata>
<defs>

<font id="iconfont" horiz-adv-x="1024" >
  <font-face
    font-family="iconfont"
    font-weight="500"
    font-stretch="normal"
    units-per-em="1024"
    ascent="896"
    descent="-128"
  />
    <missing-glyph />
    
    <glyph glyph-name="minus" unicode="&#58913;" d="M980.918297 341.14700600000003L43.079656 341.14700600000003c-23.657816 0-42.856064 19.197224-42.856064 42.8489 0 23.657816 19.198248 42.857087 42.856064 42.857087l937.838641 0c23.697725 0 42.85811-19.199271 42.85811-42.857087C1023.775384 360.34423100000004 1004.616022 341.14700600000003 980.918297 341.14700600000003L980.918297 341.14700600000003z"  horiz-adv-x="1024" />

    
    <glyph glyph-name="message" unicode="&#58893;" d="M841.074 720.424c13.536 0 30.991-18.864 31.07-38.94l-2.63-413.476-0.001-0.356c0-9.859-3.379-18.928-9.514-25.535-3.586-3.862-9.628-8.465-18.054-8.465h-0.139l-262.49-0.652a56.01 56.01 0 0 1-29.164-8.278L351.267 102.59900000000005l10.219 66.248a56 56 0 0 1-55.315 64.538l-129.379 0.069c-2.165 0-8.752 0-14.952 7.124-5.607 6.442-8.822 16.238-8.822 26.876v0.157l-1.161 413.594c0.026 21.128 15.169 39.22 27.568 39.22h661.649m0 55.999h-661.65c-46.153 0-83.568-45.569-83.568-95.274l1.162-413.697c0-49.706 33.621-90 79.774-90l129.349-0.069-28.662-185.808L579.455 177l262.489 0.652c46.153 0 83.568 40.294 83.568 90l2.632 413.697c0 49.705-40.916 95.075-87.07 95.075zM285.709 481m-60 0a60 60 0 1 1 120 0 60 60 0 1 1-120 0ZM512 481m-60 0a60 60 0 1 1 120 0 60 60 0 1 1-120 0ZM738.291 481m-60 0a60 60 0 1 1 120 0 60 60 0 1 1-120 0Z"  horiz-adv-x="1024" />

    
    <glyph glyph-name="down" unicode="&#58882;" d="M477.906 148.35400000000004c-8.307-0.093-16.644 3.03-22.984 9.37L47.626 565.021c-12.496 12.496-12.498 32.754 0.001 45.253 12.497 12.497 32.755 12.5 45.254 0.002L477.9 225.255l385.021 385.02c12.496 12.497 32.754 12.499 45.254 0 12.496-12.498 12.5-32.755 0.001-45.254L500.881 157.72400000000005c-6.337-6.337-14.67-9.46-22.975-9.37z"  horiz-adv-x="1024" />

    
    <glyph glyph-name="refresh" unicode="&#58918;" d="M146.7 271.20000000000005c-11.3 0-21.6 7.7-24.3 19.2-15.7 65.8-14.5 135.1 3.3 200.4 18.4 67.3 54.3 129.1 103.9 178.7 33.2 33.2 71.4 60.1 113.5 79.9 40.7 19.1 84.1 31.3 129.1 36 90 9.5 181.5-11.7 257.6-59.6 11.7-7.4 15.2-22.8 7.8-34.5-7.4-11.7-22.8-15.2-34.5-7.8-140.5 88.5-320.7 68.2-438.2-49.3C177.4 546.7 142.4 422.5 171 302c3.2-13.4-5.1-26.9-18.5-30.1-1.9-0.5-3.9-0.7-5.8-0.7zM515.5-19.399999999999977c-76 0-151.1 21.4-215.3 61.9-11.7 7.4-15.2 22.8-7.8 34.5 7.4 11.7 22.8 15.2 34.5 7.8C467.3-3.7999999999999545 647.5 16.5 765 134c87.2 87.2 122.4 211.1 94.1 331.3-3.2 13.4 5.2 26.9 18.6 30.1 13.4 3.2 26.9-5.2 30.1-18.6 15.5-65.7 14.2-134.8-3.6-199.9-18.4-67.1-54.3-128.8-103.8-178.3-33.2-33.2-71.4-60.1-113.5-79.9-40.7-19.1-84.1-31.3-129.1-36-14.1-1.4-28.2-2.1-42.3-2.1zM651.8 622.7c-11 0-21.1 7.4-24.1 18.5-3.6 13.3 4.3 27 17.7 30.6l91.4 24.5-24.5 91.4c-3.6 13.3 4.3 27 17.7 30.6 13.3 3.6 27-4.3 30.6-17.7l31-115.5c3.6-13.3-4.3-27-17.7-30.6l-115.5-31c-2.3-0.5-4.5-0.8-6.6-0.8zM290.7-45.799999999999955c-11.8 0-22.3 8.4-24.6 20.5l-21.7 117.6c-1.2 6.5 0.2 13.3 4 18.7s9.5 9.2 16.1 10.4l117.6 21.7c13.6 2.5 26.6-6.5 29.1-20s-6.5-26.6-20-29.1l-93-17.2 17.2-93c2.5-13.6-6.5-26.6-20-29.1-1.6-0.4-3.2-0.5-4.7-0.5z"  horiz-adv-x="1024" />

    
    <glyph glyph-name="right" unicode="&#58880;" d="M743.05319214 384.14254761l-40.17947388 40.20419311-0.17221069-0.17056275L321.12628174 805.78271484l-40.17947388-40.17947387 381.57934571-381.60406495-381.57934571-381.60736084 40.17947388-40.17453002 421.92608643 421.92526245z m0 0z"  horiz-adv-x="1024" />

    
    <glyph glyph-name="menu" unicode="&#58963;" d="M405.2992 732.0576H225.28c-33.8944 0-61.44-27.5456-61.44-61.44v-180.0192c0-33.8944 27.5456-61.44 61.44-61.44h180.0192c33.8944 0 61.44 27.5456 61.44 61.44V670.6176c0 33.8944-27.5456 61.44-61.44 61.44z m20.48-241.4592c0-11.264-9.216-20.48-20.48-20.48H225.28c-11.264 0-20.48 9.216-20.48 20.48V670.6176c0 11.264 9.216 20.48 20.48 20.48h180.0192c11.264 0 20.48-9.216 20.48-20.48v-180.0192zM405.2992 338.84159999999997H225.28c-33.8944 0-61.44-27.5456-61.44-61.44v-180.0192c0-33.8944 27.5456-61.44 61.44-61.44h180.0192c33.8944 0 61.44 27.5456 61.44 61.44V277.40160000000003c0 33.792-27.5456 61.44-61.44 61.44z m20.48-241.4592c0-11.264-9.216-20.48-20.48-20.48H225.28c-11.264 0-20.48 9.216-20.48 20.48V277.40160000000003c0 11.264 9.216 20.48 20.48 20.48h180.0192c11.264 0 20.48-9.216 20.48-20.48v-180.0192zM798.72 732.0576H618.7008c-33.8944 0-61.44-27.5456-61.44-61.44v-180.0192c0-33.8944 27.5456-61.44 61.44-61.44H798.72c33.8944 0 61.44 27.5456 61.44 61.44V670.6176c0 33.8944-27.5456 61.44-61.44 61.44z m20.48-241.4592c0-11.264-9.216-20.48-20.48-20.48H618.7008c-11.264 0-20.48 9.216-20.48 20.48V670.6176c0 11.264 9.216 20.48 20.48 20.48H798.72c11.264 0 20.48-9.216 20.48-20.48v-180.0192zM798.72 338.84159999999997H618.7008c-33.8944 0-61.44-27.5456-61.44-61.44v-180.0192c0-33.8944 27.5456-61.44 61.44-61.44H798.72c33.8944 0 61.44 27.5456 61.44 61.44V277.40160000000003c0 33.792-27.5456 61.44-61.44 61.44z m20.48-241.4592c0-11.264-9.216-20.48-20.48-20.48H618.7008c-11.264 0-20.48 9.216-20.48 20.48V277.40160000000003c0 11.264 9.216 20.48 20.48 20.48H798.72c11.264 0 20.48-9.216 20.48-20.48v-180.0192z"  horiz-adv-x="1024" />

    
    <glyph glyph-name="back" unicode="&#58950;" d="M350.62 381.82000000000005l392.72 395.43a32 32 0 0 1-45.41 45.1L282.66 404.22a32 32 0 0 1 0.16-45.25l415.27-412.44a32 32 0 1 1 45.1 45.41z"  horiz-adv-x="1024" />

    
    <glyph glyph-name="type-password" unicode="&#59130;" d="M966.3 408.2c-2 2.7-51.1 66.6-130.4 131-12.3 10-24.7 19.5-37.2 28.4l-57.4-57.4c15.5-10.7 29.9-21.5 42.8-32 43.9-35.5 78.1-71.4 98.2-94.3-20.1-22.8-54.3-58.8-98.2-94.3-64.4-52-163.9-114.1-272.1-114.1-31.4 0-62 5.2-91.3 13.9l-62.9-62.9c52.1-20.6 103.9-31 154.3-31 59 0 120 14.3 181.2 42.5 47.8 22 95.8 52.5 142.8 90.6 79.3 64.4 128.3 128.3 130.4 131l18.5 24.2-18.7 24.4zM239.9 289.70000000000005c-43.9 35.5-78.1 71.4-98.2 94.3 52.5 59.6 200.7 208.3 370.4 208.3 41.3 0 81.3-9 118.6-23.1l61.2 61.2c-60.7 27.8-121.3 41.9-179.9 41.9-59 0-120-14.3-181.2-42.5-47.8-22-95.8-52.5-142.8-90.6-79.3-64.4-128.3-128.3-130.4-131L39.2 384l18.5-24.2c2-2.7 51.1-66.6 130.4-131 19.4-15.8 39.1-30.3 58.8-43.4l57.9 57.9c-24.2 15.2-46.1 31.2-64.9 46.4zM358.9 387.3c0-26.1 6.2-50.7 17.2-72.6l63.3 63.3c-0.3 3-0.5 6.1-0.5 9.2 0 45.1 36.7 81.9 81.9 81.9 3.1 0 6.2-0.2 9.2-0.5l63.3 63.3c-21.8 11-46.5 17.2-72.6 17.2-89.1 0.1-161.8-72.5-161.8-161.8zM682.7 387.3c0 19.2-3.4 37.6-9.5 54.7l-72.4-72.4c-6.8-31-31.3-55.4-62.2-62.2L466.1 235c17.1-6.2 35.5-9.5 54.7-9.5 89.3-0.1 161.9 72.6 161.9 161.8zM466.1 235l72.4 72.4 62.2 62.2 72.5 72.4 68.1 68.2 57.5 57.5 126.7 126.7-84.8 84.9-148.8-148.8-61.3-61.3-37.2-37.2-63.3-63.4-90.6-90.5-63.3-63.4-71.5-71.4-57.9-57.9-118.7-118.7 13.9-14 712.1 712.1 56.5-56.6-712-712 14.3-14.4 144.8 144.8 63 63zM910.6 708.2l-56.5 56.6L142 52.700000000000045l-0.5-0.5 56.6-56.6 0.5 0.6z"  horiz-adv-x="1024" />

    
    <glyph glyph-name="up" unicode="&#59234;" d="M64.16 178.72000000000003a32 32 0 0 0 9.28 22.4L445.28 580.96c55.36 53.44 77.76 53.76 132.8 0L950.56 201.12a32 32 0 1 0-45.76-44.8L532.96 536.1600000000001c-5.76 5.44-15.04 14.4-21.12 19.2-6.08-4.8-15.36-13.76-21.44-19.84L118.88 156.32000000000005a32 32 0 0 0-54.72 22.4z"  horiz-adv-x="1024" />

    
    <glyph glyph-name="add" unicode="&#59364;" d="M921.6 437.248h-357.888V795.136c0 27.648-22.016 49.664-49.664 49.664s-49.664-22.016-49.664-49.664v-357.888H106.496c-27.648 0-49.664-22.016-49.664-49.664s22.016-49.664 49.664-49.664h357.888v-358.4c0-27.648 22.016-49.664 49.664-49.664s49.664 22.016 49.664 49.664v358.4H921.6c27.648 0 49.664 22.016 49.664 49.664s-22.016 49.664-49.664 49.664z"  horiz-adv-x="1024" />

    
    <glyph glyph-name="type-text" unicode="&#59140;" d="M511.5 150c168.708 0 321.167 90.915 402.8 234-81.633 143.085-234.092 234-402.8 234s-321.167-90.915-402.8-234c81.633-143.085 234.092-234 402.8-234zM19.504 403.925C112.844 587.7049999999999 301.634 706 511.5 706c209.867 0 398.655-118.296 491.996-302.075l10.12-19.925-10.12-19.925C910.156 180.29499999999996 721.366 62 511.5 62c-209.867 0-398.655 118.296-491.996 302.075L9.384 384l10.12 19.925zM512 225c-87.813 0-159 71.187-159 159s71.187 159 159 159 159-71.187 159-159-71.187-159-159-159z m0 88c39.212 0 71 31.788 71 71s-31.788 71-71 71-71-31.788-71-71 31.788-71 71-71z"  horiz-adv-x="1024" />

    
    <glyph glyph-name="order" unicode="&#58941;" d="M863.388215 800.09356h-150.527295c-7.064366 31.508094-35.500996 55.798249-68.775182 55.798249h-74.610962A61.889985 61.889985 0 0 1 511.449716 895.846427a61.813198 61.813198 0 0 1-57.999464-39.954618h-75.813952c-33.171803 0-61.634029-24.290155-68.800777-55.798249H158.308228c-39.109966 0-68.749586-32.736679-68.749586-72.716893v-782.66003c0-39.980213 30.791419-72.716893 68.749586-72.716893h703.851402c39.08437 0 72.230578 32.736679 72.230577 72.716893V727.376667c1.228585 39.980213-31.917622 72.716893-71.001992 72.716893z m-351.221824-45.815994c47.658872 0 84.670004-39.365921 84.670004-85.796207 0-48.324355-38.828415-85.821803-84.670004-85.821803-47.710063 0-84.695599 39.365921-84.695599 85.821803 0 46.430286 37.164705 85.796207 84.695599 85.796207z m217.254835-619.949264c0-14.563855-11.850729-26.696135-26.081842-26.696135H321.838051c-14.231113 0-26.081842 12.13228-26.081842 26.696135v24.290155c0 14.538259 11.850729 26.670539 26.081842 26.67054h381.501333c14.231113 0 26.081842-12.13228 26.081842-26.67054v-24.290155z m0 217.561981c0-14.538259-11.850729-26.670539-26.081842-26.670539H321.838051c-14.231113 0-26.081842 12.13228-26.081842 26.670539v24.26456c0 14.58945 11.850729 26.696135 26.081842 26.696135h381.501333c14.231113 0 26.081842-12.106684 26.081842-26.696135v-24.26456z"  horiz-adv-x="1024" />

    
    <glyph glyph-name="about" unicode="&#58942;" d="M511.961638-127.948815c-282.765186 0-511.987217 229.222031-511.987217 511.961623C-0.025579 666.777994 229.196453 895.974431 511.961638 895.974431c282.713997 0 511.936029-229.196437 511.936029-511.961623 0-282.739592-229.222031-511.961623-511.936029-511.961623zM447.950439 447.819254v-319.569706a63.65288 63.65288 0 0 1 64.011199-64.190359c35.550402 0 63.985605 28.71674 63.985605 64.190359V447.819254a63.371343 63.371343 0 0 1-18.581419 45.480968 63.448126 63.448126 0 0 1-45.404186 18.709391 63.960011 63.960011 0 0 1-64.011199-64.190359z m0 192.187163a63.883228 63.883228 0 0 1 64.011199-64.011199c35.550402 0 63.985605 28.665551 63.985605 64.011199 0 35.575996-28.691145 63.985605-63.985605 63.985605a63.857634 63.857634 0 0 1-64.011199-63.985605z"  horiz-adv-x="1024" />

    
    <glyph glyph-name="car" unicode="&#58943;" d="M511.110729 157.992421c-250.529684 0-457.189053 101.995789-457.189053 226.034526V497.987368c0 14.012632 4.122947 30.019368 8.326737 40.016843 39.666526-106.010947 225.468632-185.990737 450.937263-185.990737s411.270737 79.979789 448.835369 185.990737c4.176842-9.997474 8.380632-26.004211 8.380631-40.016843v-113.960421c0-124.038737-208.815158-226.034526-459.290947-226.034526z m2.074947 286.019368C260.581045 444.011789 55.969676 544.013474 55.969676 669.992421 55.969676 794.004211 260.581045 895.973053 513.185676 895.973053c252.577684 0 457.216-99.974737 457.216-225.980632 0-125.978947-204.638316-225.980632-457.216-225.980632z m0-378.044631c225.468632 0 411.270737 80.033684 446.760421 186.017684 4.176842-9.997474 8.380632-25.977263 8.380632-39.989895v-113.987368c0-124.011789-206.740211-226.007579-457.216-226.007579C260.581045-128 53.921676-26.004211 53.921676 98.007579v113.987368c0 14.012632 4.122947 29.992421 8.326737 39.989895 39.666526-105.984 225.468632-186.017684 450.937263-186.017684z"  horiz-adv-x="1024" />

    
    <glyph glyph-name="safety" unicode="&#58944;" d="M950.630175 752.05098a74.854381 74.854381 0 0 1-48.358388 17.305596c-1.664 0-3.199999 0-4.863999-0.128-0.9472-0.1536-12.415997-0.7168-30.156792-0.7168-29.516793 0-87.193578 1.8432-141.644765 14.003196C655.052649 798.258968 573.849469 870.78375 550.143875 885.094147a76.671981 76.671981 0 0 1-39.60319 10.879997c-13.798397 0-27.417593-3.583999-39.32159-10.726397-2.918399-1.8688-88.140778-84.275179-171.340757-102.732775-54.604786-12.159997-113.203172-14.003196-142.719965-14.003196-17.740796 0-29.209593 0.5632-30.284792 0.7168-1.5616 0.128-3.071999 0.128-4.735999 0.128-17.894396 0-35.327991-6.143998-48.486388-17.305596a61.030385 61.030385 0 0 1-22.476794-46.796788v-160.23036c0-592.767852 428.595093-669.030233 446.822288-672.025432a77.567981 77.567981 0 0 1 25.113594 0c18.150395 2.995199 450.022287 79.41118 450.022287 672.025432m-186.803153-92.031977L509.516685 196.761519a48.563188 48.563188 0 0 0-8.217598-10.009598 52.915187 52.915187 0 0 0-37.60639-14.054396 53.785587 53.785587 0 0 0-37.657591 14.054396 47.487988 47.487988 0 0 0-8.166398 10.009598l-137.958365 127.180768a45.772789 45.772789 0 0 0 0 67.993583c20.172795 18.815995 52.710387 18.815995 72.729582 0l110.847972-102.041574 249.907137 230.937542c20.198395 18.790395 52.761587 18.790395 72.755182 0 20.172795-18.636795 20.172795-49.023988 0.1792-67.839983z"  horiz-adv-x="1024" />

    
    <glyph glyph-name="feedback" unicode="&#58945;" d="M284.517381 121.527653h172.777592c17.11266 0 33.570165 6.813617 45.677437 18.947095l369.795936 369.56008c0.078619 0.131031 0.183444 0.131031 0.183443 0.235856l103.173879 103.226291a64.519708 64.519708 0 0 1 0 91.302462L803.479107 877.262554a64.650739 64.650739 0 0 1-91.381081 0L238.839944 404.345153a64.650739 64.650739 0 0 1-18.947096-45.651231v-172.672768c0-17.086454 6.839823-33.517752 18.947096-45.651231a64.965213 64.965213 0 0 1 45.677437-18.84227z m-193.637742-247.517725h839.568592a64.57212 64.57212 0 1 1 0 129.196653H90.879639A64.57212 64.57212 0 0 1 26.255107-61.391746a64.57212 64.57212 0 0 1 64.624532-64.598326z"  horiz-adv-x="1024" />

    
    <glyph glyph-name="user" unicode="&#58946;" d="M870.4 59.8528c0 0.512-0.1792 1.0752-0.1792 1.5616l-0.1792 1.1008c0 2.56-0.3584 5.12-0.9728 7.6032-15.36 117.0432-96.9472 218.1888-214.8608 266.5728 69.1968 44.8 110.208 117.5552 109.8752 194.9952 2.56 83.584-44.9024 161.9456-124.0064 204.4416-79.0272 42.496-177.152 42.496-256.1536 0-79.0016-42.5728-126.464-120.8576-123.904-204.544-0.3584-77.44 40.6528-150.2464 110.0288-194.9696-116.736-47.872-197.9648-147.6096-214.5024-263.3472a34.6112 34.6112 0 0 1-1.9456-10.752l0.1792-2.6624 0.1792-0.3328c-0.4352-11.9296 6.3488-23.1936 17.5872-29.312 11.3152-6.144 25.344-6.144 36.608 0 11.2896 6.1184 18.0224 17.3056 17.5616 29.312l-0.1792 0.3328h0.7936c15.3856 128.1536 129.408 227.6352 270.464 236.16a230.2208 230.2208 0 0 1 30.4128 0c141.056-8.5248 255.0784-108.032 270.464-236.16h0.768v-0.3328c-0.4352-11.9296 6.4-23.1936 17.6128-29.312 11.3152-6.144 25.344-6.144 36.6592 0 11.3152 6.1184 18.048 17.3056 17.6128 29.312v0.3328H870.4zM332.032 531.4304c2.56 88.1408 80.9728 158.6432 177.664 159.7952 96.6912 1.1776 177.0496-67.5072 182.0672-155.5712 5.0432-88.064-67.072-163.9168-163.328-172.032a532.48 532.48 0 0 1-16.256 0.3328c-5.376 0-11.0592-0.1792-16.4352-0.3328-93.8752 9.1136-164.7616 81.7408-163.6864 167.808z"  horiz-adv-x="1024" />

    
    <glyph glyph-name="password" unicode="&#58947;" d="M478.976 216.49919999999997v-82.0736c0-17.6896 14.6176-32.0256 32.8448-32.0256 18.176 0 32.9728 14.336 32.9984 32.0256v82.0736c32.512 14.8992 50.0224 49.7664 42.0864 83.84-7.936 34.0736-39.168 58.2144-75.0848 58.0608-35.84-0.0512-66.8672-24.2176-74.752-58.1888-7.8592-33.9968 9.5488-68.7616 41.9072-83.712zM835.7888 534.1952h-497.408c-0.7936 6.9376-2.0992 13.696-2.0992 20.864 0 99.2256 80.1024 179.6608 178.8928 179.6608 54.9376 0 103.3472-25.2928 136.192-64.4096l0.6144 0.3328c7.68-9.728 19.072-16.384 32.4096-16.384 23.2448 0 42.0864 18.9184 42.0864 42.24a41.472 41.472 0 0 1-8.704 24.576l0.3072 0.256c-0.5632 0.7168-1.1776 1.2032-1.6896 1.9456-1.28 1.536-2.5344 3.0464-4.0448 4.4032C664.2688 783.232 594.2784 819.2 515.2256 819.2c-145.2544-0.0256-263.0144-118.2976-263.04-264.192 0-7.1168 1.0496-13.9264 1.6128-20.8128H188.16A60.288 60.288 0 0 1 128 473.7792V34.81600000000003A60.288 60.288 0 0 1 188.16-25.600000000000023h647.808A60.1856 60.1856 0 0 1 896 34.81600000000003V473.7792a60.3392 60.3392 0 0 1-60.2112 60.416z m-23.9616-475.6992H212.0448V448.5888H811.776v-390.0928h0.0512z"  horiz-adv-x="1024" />

    
    <glyph glyph-name="mine" unicode="&#58948;" d="M512 896a271.058824 271.058824 0 0 0 0-542.117647 271.058824 271.058824 0 1 0 0 542.117647zM64 182.96470599999998S169.351529 243.41082400000005 391.529412 263.529412c3.975529-3.945412 120.470588-150.618353 120.470588-150.618353S632.440471 258.10823500000004 632.440471 263.529412c234.194824-19.275294 327.559529-80.624941 327.559529-80.564706 15.992471-7.469176 64-46.441412 64-70.053647v-172.93553c0-33.882353-24.907294-67.945412-60.235294-67.945411H60.235294c-35.328 0-60.235294 34.063059-60.235294 67.945411v172.93553c0 17.558588 39.604706 59.723294 64 70.053647z"  horiz-adv-x="1024" />

    
    <glyph glyph-name="home" unicode="&#58949;" d="M990.752 471.296H129.248c-47.616 0-86.176 39.072-86.176 87.264C43.072 558.56 191.904 896 258.464 896h603.072c66.144 0 215.36-337.44 215.36-337.44 0-48.192-38.56-87.264-86.144-87.264zM861.536 765.12C853.312 782.3679999999999 823.744 800 800 800H319.968c-23.776 0-49.6-10.784-61.504-34.88L172.288 602.1759999999999c0-24.128 19.296-43.616 43.072-43.616h689.216c23.808 0 43.104 19.488 43.104 43.616L861.536 765.12zM48 89.98400000000004h33.024c26.496 0 47.968-21.472 47.968-47.968V-80A48 48 0 0 0 81.024-128H48A48 48 0 0 0 0-80v122.016a48 48 0 0 0 48 47.968zM1037.984 89.98400000000004H1072a48 48 0 0 0 48-47.968V-80a48 48 0 0 0-48-48h-34.016a48 48 0 0 0-48 48v122.016a48 48 0 0 0 48 47.968zM0 64V471.296C0 519.456 48.448 576 96 576h928c47.584 0 96-56.544 96-104.704V64H0z m215.008 320c-47.488 0-86.016-38.944-86.016-87.008 0-48.032 38.528-86.976 86.016-86.976 47.488 0 86.016 38.944 86.016 86.976C301.024 345.05600000000004 262.496 384 215.008 384z m689.504 0c-47.2 0-85.504-38.944-85.504-87.008 0-48.032 38.304-86.976 85.504-86.976s85.472 38.944 85.472 86.976c0 48.064-38.272 87.008-85.472 87.008z"  horiz-adv-x="1120" />

    
    <glyph glyph-name="drive-score" unicode="&#58951;" d="M877.714286 749.743543C789.621029 838.421943 624.084114 896 497.371429 896 370.629486 896 234.408229 838.421943 146.285714 749.743543 58.7776 661.650286 0 533.1821709999999 0 398.628571c0-134.524343 58.7776-292.2496 146.285714-380.342857 101.493029-102.838857 290.143086-146.285714 380.342857-146.285714 72.733257 0 231.102171 33.089829 351.085715 146.285714 90.609371 84.874971 146.285714 247.135086 146.285714 380.342857 0 261.705143-146.285714 351.114971-146.285714 351.114972zM239.2064 112.78628600000002C184.9344 167.70194300000003 131.510857 231.83360000000005 117.028571 310.85714299999995c-5.441829 21.738057 13.575314 29.257143 29.257143 29.257143 32.592457 0.6144 56.992914 6.026971 87.771429 0 89.439086-22.703543 185.490286-110.972343 204.770743-234.057143 7.255771-44.617143-3.598629-50.3808 0-87.771429-75.249371 5.090743-147.719314 42.042514-199.621486 94.500572z m272.735086 115.858285C433.590857 228.64457100000004 351.085714 265.01120000000003 351.085714 369.40068599999995c0 39.789714 5.090743 89.263543 29.257143 116.999314H175.542857c-19.309714-1.199543-34.669714 5.295543-29.257143 24.605257a387.8912 387.8912 0 0 0 93.564343 152.020114c69.953829 71.182629 170.715429 106.788571 272.091429 106.788572 101.376 0 202.1376-35.605943 272.735085-106.788572a394.737371 394.737371 0 0 0 93.535086-152.020114c5.412571-19.309714-10.474057-25.8048-29.754514-24.605257h-204.770743c24.078629-27.735771 29.227886-77.2096 29.227886-116.999314 0-104.389486-81.159314-140.756114-160.9728-140.756115z m272.735085-115.858285C732.7744 60.328228999999965 661.825829 23.698286000000053 585.142857 18.285713999999984c3.627886 38.034286-6.612114 43.154286 0 87.771429 19.309714 123.0848 118.725486 211.265829 204.770743 234.057143 30.573714 7.197257 55.822629 0.6144 87.800686 0 16.296229 0.6144 34.669714-7.519086 29.257143-29.257143-14.482286-78.4384-68.578743-143.1552-122.294858-198.070857zM598.8352 473.556114c-44.6464 45.2608-129.111771 45.2608-174.372571 0a124.196571 124.196571 0 0 1-36.191086-88.034743 124.459886 124.459886 0 0 1 65.155657-109.831314 123.201829 123.201829 0 0 1 115.829029 0 124.635429 124.635429 0 0 1 65.184914 109.831314 121.417143 121.417143 0 0 1-35.605943 88.034743z"  horiz-adv-x="1024" />

    
    <glyph glyph-name="battery" unicode="&#58952;" d="M81.92 896h1392.68096A81.92 81.92 0 0 0 1556.48 814.08v-860.16a81.92 81.92 0 0 0-81.87904-81.92H81.92a81.92 81.92 0 0 0-81.92 81.92V814.08a81.92 81.92 0 0 0 81.92 81.92zM1556.48 650.24h102.4A61.44 61.44 0 0 0 1720.32 588.8v-409.6a61.44 61.44 0 0 0-61.44-61.39904H1556.48V650.24zM1062.01088 491.3152c-2.21184 4.34176-9.216 14.62272-26.46016 15.85152l-1.59744 0.08192-177.39776 1.10592 45.62944 220.24192a15.5648 15.5648 0 0 1 0.28672 1.8432c1.6384 13.80352-1.26976 24.73984-8.51968 32.52224a32.72704 32.72704 0 0 1-24.33024 10.11712c-11.01824 0-20.60288-4.7104-23.22432-6.18496a22.81472 22.81472 0 0 1-6.30784-4.99712l-341.4016-392.11008c-0.49152-0.6144-1.024-1.2288-1.47456-1.92512-5.24288-7.53664-8.68352-19.53792-2.49856-30.63808 3.15392-5.65248 11.30496-15.1552 30.35136-15.1552l2.82624 0.08192 157.0816 0.08192-87.69536-246.53824a15.60576 15.60576 0 0 1-1.024-4.34176 31.9488 31.9488 0 0 1 7.82336-25.47712 32.23552 32.23552 0 0 1 24.1664-10.0352c5.89824 0 12.16512 1.26976 19.08736 3.97312a22.44608 22.44608 0 0 1 8.15104 5.36576l400.54784 411.36128a24.73984 24.73984 0 0 1 2.29376 2.82624c2.70336 3.8912 10.93632 17.6128 3.6864 31.9488z"  horiz-adv-x="1720" />

    


  </font>
</defs>
</svg>
